{
	"asset":{
		"generator":"Khronos glTF Blender I/O v4.0.43",
		"version":"2.0"
	},
	"scene":0,
	"scenes":[
		{
			"name":"Scene",
			"nodes":[
				0
			]
		}
	],
	"nodes":[
		{
			"mesh":0,
			"name":"Cube.001",
			"scale":[
				0.09999999403953552,
				0.019999999552965164,
				0.13499999046325684
			],
			"translation":[
				0.0008778870105743408,
				0,
				0
			]
		}
	],
	"materials":[
		{
			"doubleSided":true,
			"name":"Material.001",
			"pbrMetallicRoughness":{
				"metallicFactor":0,
				"roughnessFactor":0.8858267664909363
			}
		},
		{
			"doubleSided":true,
			"name":"Material.002",
			"pbrMetallicRoughness":{
				"baseColorTexture":{
					"index":0
				},
				"metallicFactor":0,
				"roughnessFactor":0.5
			}
		}
	],
	"meshes":[
		{
			"name":"Cube.003",
			"primitives":[
				{
					"attributes":{
						"POSITION":0,
						"NORMAL":1,
						"TEXCOORD_0":2
					},
					"indices":3,
					"material":0
				},
				{
					"attributes":{
						"POSITION":4,
						"NORMAL":5,
						"TEXCOORD_0":6
					},
					"indices":7,
					"material":1
				}
			]
		}
	],
	"textures":[
		{
			"sampler":0,
			"source":0
		}
	],
	"images":[
		{
			"mimeType":"image/png",
			"name":"Captura de pantalla 2024-07-11 174938",
			"uri":"Captura%20de%20pantalla%202024-07-11%20174938.png"
		}
	],
	"accessors":[
		{
			"bufferView":0,
			"componentType":5126,
			"count":391,
			"max":[
				1.0404077768325806,
				1,
				1
			],
			"min":[
				-1,
				-1,
				-1
			],
			"type":"VEC3"
		},
		{
			"bufferView":1,
			"componentType":5126,
			"count":391,
			"type":"VEC3"
		},
		{
			"bufferView":2,
			"componentType":5126,
			"count":391,
			"type":"VEC2"
		},
		{
			"bufferView":3,
			"componentType":5123,
			"count":900,
			"type":"SCALAR"
		},
		{
			"bufferView":4,
			"componentType":5126,
			"count":30,
			"max":[
				0.9694272875785828,
				0.6370431780815125,
				0.9770380258560181
			],
			"min":[
				-0.965182363986969,
				-0.6370431780815125,
				-0.9805271029472351
			],
			"type":"VEC3"
		},
		{
			"bufferView":5,
			"componentType":5126,
			"count":30,
			"type":"VEC3"
		},
		{
			"bufferView":6,
			"componentType":5126,
			"count":30,
			"type":"VEC2"
		},
		{
			"bufferView":7,
			"componentType":5123,
			"count":72,
			"type":"SCALAR"
		}
	],
	"bufferViews":[
		{
			"buffer":0,
			"byteLength":4692,
			"byteOffset":0,
			"target":34962
		},
		{
			"buffer":0,
			"byteLength":4692,
			"byteOffset":4692,
			"target":34962
		},
		{
			"buffer":0,
			"byteLength":3128,
			"byteOffset":9384,
			"target":34962
		},
		{
			"buffer":0,
			"byteLength":1800,
			"byteOffset":12512,
			"target":34963
		},
		{
			"buffer":0,
			"byteLength":360,
			"byteOffset":14312,
			"target":34962
		},
		{
			"buffer":0,
			"byteLength":360,
			"byteOffset":14672,
			"target":34962
		},
		{
			"buffer":0,
			"byteLength":240,
			"byteOffset":15032,
			"target":34962
		},
		{
			"buffer":0,
			"byteLength":144,
			"byteOffset":15272,
			"target":34963
		}
	],
	"samplers":[
		{
			"magFilter":9729,
			"minFilter":9987
		}
	],
	"buffers":[
		{
			"byteLength":15416,
			"uri":"Book.bin"
		}
	]
}
